<svg xmlns="http://www.w3.org/2000/svg" width="300" height="50" viewBox="0 0 300 50">
  <defs>
    <style>
      .cls-1 {
        fill: #fefefe;
      }

      .cls-1, .cls-2 {
        fill-rule: evenodd;
      }

      .cls-2 {
        fill: #49aa26;
      }
    </style>
  </defs>
  <path id="my.finance" class="cls-1" d="M40.163,22.341q0-10.08-8.565-10.08a9.314,9.314,0,0,0-8.616,5.125,7.125,7.125,0,0,0-2.712-3.711,7.762,7.762,0,0,0-4.638-1.414,8.894,8.894,0,0,0-8.059,4.5h-0.1V12.841H3.316V37.593H7.472V23.477a8.754,8.754,0,0,1,1.774-5.693A5.559,5.559,0,0,1,13.757,15.6q5.9,0,5.9,7.3v14.7h4.156V23.477a8.606,8.606,0,0,1,1.863-5.559A5.618,5.618,0,0,1,30.2,15.6q3.142,0,4.473,1.837t1.33,5.946V37.593h4.156V22.341Zm27.315-9.5L60.1,31.937q-0.38,1.257-.507,1.837H59.445q-0.406-1.523-.532-1.885l-7.02-19.048H47.281l10.137,24.7L55.34,42.234q-1.572,3.577-4.714,3.578a8.034,8.034,0,0,1-2.458-.435V48.93a9.953,9.953,0,0,0,2.712.314q5.778,0,8.971-7.687L71.787,12.841H67.479ZM82.833,37.327a2.547,2.547,0,0,0,.836-1.91,2.586,2.586,0,0,0-.836-1.922,2.808,2.808,0,0,0-2.027-.81,2.734,2.734,0,0,0-1.989.81,2.6,2.6,0,0,0-.824,1.922,2.565,2.565,0,0,0,.824,1.91,2.755,2.755,0,0,0,1.989.8A2.83,2.83,0,0,0,82.833,37.327ZM106.55,0.851a8.508,8.508,0,0,0-3.016-.435,8.159,8.159,0,0,0-5.879,2.26A8.123,8.123,0,0,0,95.3,8.828v4.013H90.863v3.384H95.3V37.593h4.131V16.225h6.082V12.841H99.429V9.022q0-5.245,4.358-5.245a5.752,5.752,0,0,1,2.763.653V0.851Zm10.6,4.955a2.4,2.4,0,0,0,.8-1.813,2.412,2.412,0,0,0-.8-1.849,2.754,2.754,0,0,0-1.939-.737,2.676,2.676,0,0,0-1.9.737,2.43,2.43,0,0,0-.786,1.849,2.391,2.391,0,0,0,.786,1.837,2.7,2.7,0,0,0,1.9.725A2.728,2.728,0,0,0,117.152,5.807Zm0.089,7.034h-4.156V37.593h4.156V12.841Zm33.068,9.621q0-4.955-2.256-7.578a8.118,8.118,0,0,0-6.512-2.623,9.455,9.455,0,0,0-8.515,4.689h-0.1V12.841h-4.156V37.593h4.156V23.477a8.054,8.054,0,0,1,2.04-5.644,6.681,6.681,0,0,1,5.157-2.236q6.031,0,6.032,7.88V37.593h4.156V22.461Zm29.52-.967q0-9.233-9.148-9.234a16.665,16.665,0,0,0-8.819,2.321v4.061a13.138,13.138,0,0,1,8.464-3.046q5.346,0,5.347,6.309l-7.78,1.039q-8.567,1.136-8.566,8.073a6.629,6.629,0,0,0,2.192,5.2,9.756,9.756,0,0,0,14.052-2.49h0.1v3.868h4.156v-16.1Zm-4.156,6.043a7.19,7.19,0,0,1-2.015,5.233,6.827,6.827,0,0,1-5.106,2.067,5.4,5.4,0,0,1-3.611-1.148,3.7,3.7,0,0,1-1.356-2.961,3.858,3.858,0,0,1,1.47-3.469,10.488,10.488,0,0,1,4.358-1.366l6.26-.822v2.466Zm36.641-5.076q0-4.955-2.255-7.578a8.121,8.121,0,0,0-6.513-2.623,9.456,9.456,0,0,0-8.515,4.689h-0.1V12.841h-4.156V37.593h4.156V23.477a8.05,8.05,0,0,1,2.04-5.644,6.679,6.679,0,0,1,5.157-2.236q6.03,0,6.031,7.88V37.593h4.156V22.461Zm28.633,10.225a10.734,10.734,0,0,1-6.386,2.151,8.454,8.454,0,0,1-6.424-2.514,9.541,9.541,0,0,1-2.4-6.865,10.026,10.026,0,0,1,2.547-7.143,8.544,8.544,0,0,1,6.526-2.719A10.915,10.915,0,0,1,241,17.53V13.469a14.215,14.215,0,0,0-6.031-1.209,13.185,13.185,0,0,0-9.808,3.71,13.354,13.354,0,0,0-3.674,9.826,11.756,11.756,0,0,0,12.367,12.376,14.017,14.017,0,0,0,7.095-1.716V32.686ZM271.2,24.129q0-5.584-2.787-8.726t-7.882-3.142a11.25,11.25,0,0,0-8.527,3.638,13.156,13.156,0,0,0-3.434,9.415q0,6.116,3.142,9.488a11.235,11.235,0,0,0,8.642,3.372A15.6,15.6,0,0,0,269.4,35.8V32.082a13.137,13.137,0,0,1-8.059,2.756,8.246,8.246,0,0,1-6.132-2.248,9,9,0,0,1-2.332-6.381H271.2V24.129Zm-18.271-1.281a8.933,8.933,0,0,1,2.534-5.245,6.875,6.875,0,0,1,4.992-2.006,6.052,6.052,0,0,1,4.752,1.91,7.823,7.823,0,0,1,1.736,5.342H252.931Z"/>
  <path id="_" data-name="$" class="cls-2" d="M294.377,34.337A7.432,7.432,0,0,0,296.8,28.7a7.291,7.291,0,0,0-1.939-4.974q-1.938-2.185-7.21-4.525V6.727a12.083,12.083,0,0,1,6.868,2.032V4.742q-1.9-1.181-6.868-1.323V-0.74h-2.635V3.514A10.672,10.672,0,0,0,278.653,6.5a8.06,8.06,0,0,0-2.509,5.919,7.893,7.893,0,0,0,1.647,5q1.647,2.115,7.223,4.619v12.1a15.646,15.646,0,0,1-4.752-.815,12.162,12.162,0,0,1-4.017-2.02v4.111a16.809,16.809,0,0,0,8.769,2.032v4.938h2.635V37.255A12.128,12.128,0,0,0,294.377,34.337Zm-12.962-19.08a5.255,5.255,0,0,1-1.014-3.332,4.711,4.711,0,0,1,1.242-3.3,5.894,5.894,0,0,1,3.371-1.76V17.88A10.823,10.823,0,0,1,281.415,15.257ZM292.54,29.032q0,3.923-4.891,4.915V23.267q4.892,2.5,4.891,5.765h0Z"/>
  <path id="_." data-name="." class="cls-2" d="M82.649,37.184a2.464,2.464,0,0,0,.836-1.867,2.5,2.5,0,0,0-.836-1.879,2.843,2.843,0,0,0-2.027-.791,2.767,2.767,0,0,0-1.989.791,2.519,2.519,0,0,0-.824,1.879,2.481,2.481,0,0,0,.824,1.867,2.789,2.789,0,0,0,1.989.78A2.866,2.866,0,0,0,82.649,37.184Z"/>
</svg>
